<svg height="32" viewBox="0 0 398 32" width="398" xmlns="http://www.w3.org/2000/svg"><g fill="#1a1919" fill-rule="evenodd"><path d="m5.664 7.104.064.032v3.743h.096c.768-2.111 2.655-3.839 5.407-3.839 3.584 0 4.672 1.792 4.672 5.184v6.751c0 2.048.128 4.16.64 5.76h-5.791c.479-1.504.543-3.36.543-5.568v-6.431c0-1.569-.64-2.304-2.336-2.304-1.312 0-2.303.352-3.04 1.024v7.711c0 2.208.064 4.064.544 5.568h-5.791c.512-1.6.64-3.712.64-5.76v-6.239c0-1.696-.608-3.2-1.312-4z"/><path d="m26.143 21.407v-6.272c-.352.513-.8.832-2.08 1.441-1.632.799-2.208 1.664-2.208 3.519 0 1.504.832 2.464 2.176 2.464 1.312 0 1.76-.48 2.112-1.152zm-1.504-14.367c4.48 0 6.144 1.76 6.144 5.408v7.647c0 1.376.544 1.792 1.632 1.792.191 0 .735-.095.927-.256-.095.512-.159.8-.287 1.12-.512 1.44-1.44 2.368-3.328 2.368-2.208 0-3.328-1.536-3.392-3.168h-.064c-.736 2.208-2.176 3.168-4.448 3.168-2.783 0-4.575-1.664-4.575-4.287 0-2.752 2.496-3.937 5.087-4.96 2.464-.993 3.808-1.697 3.808-3.456v-.352c0-1.952-.608-2.944-2.432-2.944-1.152 0-1.568.512-1.824 1.631-.352 1.665-1.024 2.273-2.143 2.273-.993 0-1.889-.672-1.889-1.888 0-2.432 3.329-4.096 6.784-4.096z"/><path d="m43.327 22.847c-.608 1.376-2.08 2.272-4.16 2.272-3.552 0-4.928-1.792-4.928-5.056v-10.207h-1.696v-.128l6.208-6.368.096.033v4.031h4.416l-.448 2.432h-3.968v9.472c0 1.823.768 2.527 2.4 2.527 1.248 0 1.92-.192 2.464-.48-.096.608-.16.96-.384 1.472"/><path d="m49.311 7.296v11.967c0 1.792.704 2.784 2.432 2.784 1.471 0 2.56-.48 3.199-1.312v-8.095c0-1.761-.192-3.265-.736-4.8l5.344-.544v12.255c0 2.688.288 3.904.704 5.184h-5.184v-3.456h-.064c-.735 2.208-2.175 3.807-5.151 3.807-3.776 0-5.152-2.271-5.152-5.663v-6.783c0-1.761-.16-3.265-.736-4.8z"/><path d="m66.911 11.488c.768-3.2 2.239-4.448 4.191-4.448 1.793 0 2.688.928 2.688 2.4 0 1.344-.736 2.399-2.144 2.399-.799 0-1.279-.351-1.631-.703-.416-.352-.672-.736-1.056-.736-.928 0-1.952 1.536-1.952 4.191v4.288c0 2.144.16 4.256.576 5.856h-5.792c.512-1.6.64-3.712.64-5.76v-6.239c0-1.696-.608-3.2-1.312-4l5.664-1.632.064.032v4.352z"/><path d="m77.919 14.016 5.791-.513c-.064-2.752-.48-4.383-2.4-4.383-1.952 0-3.104 1.568-3.391 4.896zm3.455 11.103c-4.416 0-8.095-2.944-8.095-8.576 0-5.727 3.488-9.535 8.191-9.535 4.48 0 6.56 2.848 6.56 8.192h-10.176v.511c0 4.32 2.24 6.016 5.28 6.016 2.752 0 4-1.12 4.8-1.92l.096.288c-.736 2.592-2.816 5.024-6.656 5.024z"/><path d="m98.974 11.488c.768-3.2 2.24-4.448 4.192-4.448 1.792 0 2.688.928 2.688 2.4 0 1.344-.736 2.399-2.144 2.399-.8 0-1.28-.351-1.632-.703-.416-.352-.672-.736-1.056-.736-.928 0-1.952 1.536-1.952 4.191v4.288c0 2.144.16 4.256.576 5.856h-5.791c.512-1.6.64-3.712.64-5.76v-6.239c0-1.696-.608-3.2-1.312-4l5.663-1.632.064.032v4.352z"/><path d="m109.982 14.016 5.791-.513c-.064-2.752-.48-4.383-2.399-4.383-1.952 0-3.104 1.568-3.392 4.896zm3.456 11.103c-4.416 0-8.096-2.944-8.096-8.576 0-5.727 3.488-9.535 8.192-9.535 4.479 0 6.559 2.848 6.559 8.192h-10.175v.511c0 4.32 2.24 6.016 5.28 6.016 2.751 0 3.999-1.12 4.799-1.92l.096.288c-.736 2.592-2.816 5.024-6.655 5.024z"/><path d="m127.038 12.224 2.208 5.823h.032l2.176-5.759c.735-1.92 1.024-3.616.48-4.896h4.383c-.8 1.248-1.728 3.168-2.56 5.216l-4.927 12.287h-1.536l-5.024-12.287c-.928-2.24-1.536-3.744-2.463-5.216h6.303c-.096 1.344.16 2.784.928 4.832"/><path d="m136.542 3.296c0-1.535 1.152-2.752 2.784-2.752 1.664 0 2.816 1.217 2.816 2.752 0 1.504-1.152 2.752-2.816 2.752-1.632 0-2.784-1.248-2.784-2.752zm5.28 15.679c0 2.048.128 4.16.64 5.76h-5.92c.512-1.6.64-3.712.64-5.76v-6.239c0-1.696-.608-3.2-1.312-4l6.016-1.632.064.032-.128 4.32z"/><path d="m148.445 14.016 5.792-.513c-.064-2.752-.48-4.383-2.4-4.383-1.952 0-3.104 1.568-3.392 4.896zm3.456 11.103c-4.416 0-8.095-2.944-8.095-8.576 0-5.727 3.487-9.535 8.191-9.535 4.48 0 6.56 2.848 6.56 8.192h-10.176v.511c0 4.32 2.24 6.016 5.28 6.016 2.752 0 4-1.12 4.799-1.92l.097.288c-.736 2.592-2.816 5.024-6.656 5.024z"/><path d="m165.118 12.127 1.727 5.665h.064l3.52-10.368h1.824l3.552 10.368h.064l1.695-5.28c.672-2.048.769-3.84.385-5.12h4.031c-.608 1.376-1.344 3.264-2.08 5.472l-3.967 12.031h-1.792l-3.744-10.911h-.096l-3.872 10.911h-1.824l-3.935-12.063c-.768-2.336-1.408-4-2.048-5.44h5.887c-.095 1.312 0 2.752.609 4.735"/><path d="m192.573 7.872.16 3.648h-.096c-1.28-1.376-2.56-2.4-4.608-2.4-1.376 0-2.272.512-2.272 1.759 0 1.248.64 1.761 3.424 2.945 2.944 1.216 4.768 2.592 4.768 5.439 0 2.976-1.568 5.856-6.432 5.856-2.048 0-3.999-.416-5.471-1.216l-.192-4.384h.16c1.376 1.76 3.36 3.52 5.471 3.52 2.112 0 2.624-.768 2.624-2.144 0-1.536-.8-1.952-3.487-3.103-2.816-1.184-4.704-2.529-4.704-5.44 0-3.328 2.592-5.312 6.015-5.312 2.272 0 3.552.352 4.64.832"/><path d="m214.012 16.479v-.256c0-4.607-2.495-7.039-5.983-7.039-3.584 0-6.176 2.592-6.176 7.104v.255c0 4.576 2.592 7.008 5.919 7.008 3.393 0 6.24-2.464 6.24-7.072zm-13.919.129v-.257c0-5.151 3.36-8.607 7.776-8.607 3.296 0 5.151 1.888 6.111 3.967v-11.711h1.696v24.735h-1.696v-3.872c-.896 2.016-3.231 4.128-6.367 4.128-4.256 0-7.52-3.072-7.52-8.383z"/><path d="m219.646 8h1.695v3.52c.928-2.048 2.592-3.648 5.664-3.744v1.599c-3.232.129-5.664 1.633-5.664 6.081v9.279h-1.695z"/><path d="m229.341 18.591v-10.591h1.696v10.496c0 3.551 1.664 5.023 4.575 5.023 2.72 0 5.472-1.824 5.472-5.344v-10.175h1.696v16.735h-1.696v-3.2c-.768 1.824-2.912 3.456-5.855 3.456-3.457 0-5.888-1.792-5.888-6.4"/><path d="m259.42 16.095v-.256c0-4.223-2.496-6.655-5.983-6.655-3.584 0-6.176 2.56-6.176 6.72v.256c0 4.159 2.624 6.591 5.951 6.591 3.392 0 6.208-2.463 6.208-6.656zm-13.567 9.6h1.728c.448 2.143 2.24 3.615 5.727 3.615 3.584 0 6.08-1.632 6.08-5.759v-3.424c-.896 2.016-3.232 4.064-6.336 4.064-4.255 0-7.551-3.136-7.551-7.999v-.225c0-4.767 3.36-8.223 7.775-8.223 3.296 0 5.152 1.824 6.112 3.872v-3.616h1.696v15.615c-.032 4.927-3.264 7.135-7.744 7.135-4.831 0-7.071-2.368-7.487-5.055z"/><path d="m284.348 16.479v-.256c0-4.607-2.496-7.039-5.984-7.039-3.584 0-6.176 2.592-6.176 7.104v.255c0 4.576 2.592 7.008 5.92 7.008 3.392 0 6.24-2.464 6.24-7.072zm-13.919.129v-.257c0-5.151 3.36-8.607 7.775-8.607 3.296 0 5.151 1.888 6.111 3.967v-11.711h1.697v24.735h-1.697v-3.872c-.895 2.016-3.231 4.128-6.367 4.128-4.256 0-7.519-3.072-7.519-8.383z"/><path d="m290.044 24.735h1.696v-16.735h-1.696zm-.384-21.535c0-.639.544-1.183 1.216-1.183s1.184.544 1.184 1.183c0 .673-.512 1.217-1.184 1.217s-1.216-.544-1.216-1.217z"/><path d="m294.364 19.744h1.632c.288 2.271 1.696 3.839 4.8 3.839 2.816 0 4.256-1.28 4.256-3.295 0-2.145-1.248-2.817-4.384-3.393-4.096-.735-5.76-1.791-5.76-4.671 0-2.849 2.688-4.48 5.504-4.48 3.008 0 5.376 1.248 5.823 4.544h-1.631c-.416-2.144-1.792-3.104-4.224-3.104-2.336 0-3.904 1.184-3.904 2.976 0 1.92 1.152 2.624 4.576 3.231 3.584.641 5.632 1.504 5.632 4.769 0 2.815-2.08 4.863-5.888 4.863-3.936 0-6.208-2.08-6.432-5.279"/><path d="m308.124 16.543v-.255c0-5.121 3.584-8.544 8-8.544 3.391 0 6.527 1.792 6.975 5.568h-1.664c-.416-2.816-2.688-4.128-5.311-4.128-3.488 0-6.24 2.688-6.24 7.104v.255c0 4.416 2.72 7.008 6.24 7.008 2.783 0 5.151-1.6 5.567-4.608h1.568c-.448 3.584-3.328 6.048-7.135 6.048-4.512 0-8-3.36-8-8.448"/><path d="m339.035 16.511v-.256c0-4.416-2.752-7.071-6.304-7.071-3.583 0-6.335 2.72-6.335 7.071v.256c0 4.288 2.688 7.04 6.335 7.04 3.584 0 6.304-2.719 6.304-7.04zm-14.399 0v-.256c0-5.023 3.616-8.511 8.095-8.511 4.512 0 8.064 3.392 8.064 8.479v.256c0 5.056-3.584 8.512-8.095 8.512-4.544 0-8.064-3.552-8.064-8.48z"/><path d="m341.212 8h1.856l5.696 15.039 5.663-15.039h1.728l-6.303 16.735h-2.208z"/><path d="m369.852 15.135c-.161-4.063-2.304-5.951-5.568-5.951-3.232 0-5.536 2.304-5.855 5.951zm-13.248 1.408v-.255c0-5.056 3.2-8.544 7.68-8.544 4.031 0 7.327 2.624 7.327 8.16v.607h-13.247c.065 4.48 2.208 7.04 6.176 7.04 2.783 0 4.672-1.152 5.247-3.488h1.696c-.704 3.2-3.359 4.928-6.943 4.928-4.832 0-7.936-3.424-7.936-8.448z"/><path d="m374.3 8h1.695v3.52c.929-2.048 2.592-3.648 5.664-3.744v1.599c-3.231.129-5.664 1.633-5.664 6.081v9.279h-1.695z"/><path d="m389.115 23.295-6.624-15.295h1.824l5.728 13.343 5.344-13.343h1.727l-9.279 22.558h-1.76z"/></g></svg>